<svg width="299" height="295" version="1.1" xmlns="http://www.w3.org/2000/svg" desc="Created with imagetracer.js version 1.2.6" ><path fill="rgb(0,0,0)" stroke="rgb(0,0,0)" stroke-width="1" opacity="0" d="M 0 0 L 299 0 L 299 295 L 0 295 L 0 0 Z M 138 24 Q 94 30 69 54 Q 33 82 27 141 Q 28 196 55 225 Q 84 263 146 269 Q 202 267 232 238 Q 264 211 272 159 Q 274 98 245 69 Q 214 24 138 24 Z " /><path fill="rgb(189,120,233)" stroke="rgb(189,120,233)" stroke-width="1" opacity="0.7764705882352941" d="M 137.5 24 L 163 24.5 L 137.5 25 L 137.5 24 Z " /><path fill="rgb(189,120,233)" stroke="rgb(189,120,233)" stroke-width="1" opacity="0.7764705882352941" d="M 129.5 25 L 135 25.5 L 129.5 26 L 129.5 25 Z " /><path fill="rgb(189,120,233)" stroke="rgb(189,120,233)" stroke-width="1" opacity="0.7764705882352941" d="M 164.5 25 L 170 25.5 L 164.5 26 L 164.5 25 Z " /><path fill="rgb(189,120,233)" stroke="rgb(189,120,233)" stroke-width="1" opacity="0.7764705882352941" d="M 124.5 26 L 128 26.5 L 124.5 27 L 124.5 26 Z " /><path fill="rgb(189,120,233)" stroke="rgb(189,120,233)" stroke-width="1" opacity="0.7764705882352941" d="M 171.5 26 Q 185.326 27.174 195 32.5 L 193.5 33 Q 184.5 28 171.5 27 L 171.5 26 Z " /><path fill="rgb(189,120,233)" stroke="rgb(189,120,233)" stroke-width="1" opacity="0.7764705882352941" d="M 120.5 27 L 123 27.5 L 120.5 28 L 120.5 27 Z " /><path fill="rgb(189,120,233)" stroke="rgb(189,120,233)" stroke-width="1" opacity="0.7764705882352941" d="M 116.5 28 L 119 28.5 L 116.5 29 L 116.5 28 Z " /><path fill="rgb(189,120,233)" stroke="rgb(189,120,233)" stroke-width="1" opacity="0.7764705882352941" d="M 113.5 29 L 115 29.5 L 113.5 30 L 113.5 29 Z " /><path fill="rgb(189,120,233)" stroke="rgb(189,120,233)" stroke-width="1" opacity="0.7764705882352941" d="M 109.5 30 L 112 30.5 Q 80.904 40.904 61 62.5 Q 44.372 79.372 35.5 104 L 35 102.5 Q 46.604 73.104 68.5 54 Q 85.545 38.545 109.5 30 Z " /><path fill="rgb(189,120,233)" stroke="rgb(189,120,233)" stroke-width="1" opacity="0.7764705882352941" d="M 196.5 33 Q 226.493 45.007 245 68.5 Q 262.729 88.271 269 119.5 L 268 119.5 Q 258.111 76.389 228.5 53 Q 214.938 41.062 196.5 34 L 196.5 33 Z " /><path fill="rgb(189,120,233)" stroke="rgb(189,120,233)" stroke-width="1" opacity="0.7764705882352941" d="M 34.5 105 L 35 106.5 L 33.5 110 L 33 107.5 L 34.5 105 Z " /><path fill="rgb(189,120,233)" stroke="rgb(189,120,233)" stroke-width="1" opacity="0.7764705882352941" d="M 32.5 111 L 33 113.5 L 30.5 122 L 30 118.5 L 32.5 111 Z " /><path fill="rgb(189,120,233)" stroke="rgb(189,120,233)" stroke-width="1" opacity="0.7764705882352941" d="M 269.5 121 L 270 124.5 L 269 124.5 L 269.5 121 Z " /><path fill="rgb(189,120,233)" stroke="rgb(189,120,233)" stroke-width="1" opacity="0.7764705882352941" d="M 29.5 123 L 30 127.5 L 29 127.5 L 29.5 123 Z " /><path fill="rgb(189,120,233)" stroke="rgb(189,120,233)" stroke-width="1" opacity="0.7764705882352941" d="M 270.5 126 L 271 131.5 L 270 131.5 L 270.5 126 Z " /><path fill="rgb(189,120,233)" stroke="rgb(189,120,233)" stroke-width="1" opacity="0.7764705882352941" d="M 28.5 129 L 29 136.5 L 28 136.5 L 28.5 129 Z " /><path fill="rgb(189,120,233)" stroke="rgb(189,120,233)" stroke-width="1" opacity="0.7764705882352941" d="M 271.5 134 L 272 158.5 L 271 158.5 L 271.5 134 Z " /><path fill="rgb(189,120,233)" stroke="rgb(189,120,233)" stroke-width="1" opacity="0.7764705882352941" d="M 27.5 140 L 28 151.5 L 27 151.5 L 27.5 140 Z " /><path fill="rgb(189,120,233)" stroke="rgb(189,120,233)" stroke-width="1" opacity="0.7764705882352941" d="M 28.5 156 L 29 162.5 L 28 162.5 L 28.5 156 Z " /><path fill="rgb(189,120,233)" stroke="rgb(189,120,233)" stroke-width="1" opacity="0.7764705882352941" d="M 270.5 161 L 271 166.5 L 270 166.5 L 270.5 161 Z " /><path fill="rgb(189,120,233)" stroke="rgb(189,120,233)" stroke-width="1" opacity="0.7764705882352941" d="M 29.5 165 L 30 168.5 L 29 168.5 L 29.5 165 Z " /><path fill="rgb(189,120,233)" stroke="rgb(189,120,233)" stroke-width="1" opacity="0.7764705882352941" d="M 269.5 168 L 270 171.5 L 269 171.5 L 269.5 168 Z " /><path fill="rgb(189,120,233)" stroke="rgb(189,120,233)" stroke-width="1" opacity="0.7764705882352941" d="M 30.5 170 L 31 173.5 L 30 173.5 L 30.5 170 Z " /><path fill="rgb(189,120,233)" stroke="rgb(189,120,233)" stroke-width="1" opacity="0.7764705882352941" d="M 268.5 173 L 269 175.5 L 268 175.5 L 268.5 173 Z " /><path fill="rgb(189,120,233)" stroke="rgb(189,120,233)" stroke-width="1" opacity="0.7764705882352941" d="M 31.5 175 L 32 177.5 L 31 177.5 L 31.5 175 Z " /><path fill="rgb(189,120,233)" stroke="rgb(189,120,233)" stroke-width="1" opacity="0.7764705882352941" d="M 267.5 177 L 268 179.5 L 266.5 183 L 266 180.5 L 267.5 177 Z " /><path fill="rgb(189,120,233)" stroke="rgb(189,120,233)" stroke-width="1" opacity="0.7764705882352941" d="M 32.5 179 Q 43.549 216.951 70.5 239 Q 89.277 255.723 117 263.5 L 114.5 264 Q 77.058 251.942 55 224.5 Q 38.01 206.11 32.5 179 Z " /><path fill="rgb(189,120,233)" stroke="rgb(189,120,233)" stroke-width="1" opacity="0.7764705882352941" d="M 265.5 184 L 266 185.5 L 265 185.5 L 265.5 184 Z " /><path fill="rgb(189,120,233)" stroke="rgb(189,120,233)" stroke-width="1" opacity="0.7764705882352941" d="M 264.5 187 L 265 188.5 Q 253.752 218.752 231.5 238 Q 214.5 254 189.5 262 L 189.5 261 Q 219.099 251.099 238 230.5 Q 255.249 212.749 264.5 187 Z " /><path fill="rgb(189,120,233)" stroke="rgb(189,120,233)" stroke-width="1" opacity="0.7764705882352941" d="M 186.5 262 L 188 262.5 L 186.5 263 L 186.5 262 Z " /><path fill="rgb(189,120,233)" stroke="rgb(189,120,233)" stroke-width="1" opacity="0.7764705882352941" d="M 182.5 263 L 185 263.5 L 174.5 266 L 174.5 265 L 182.5 263 Z " /><path fill="rgb(189,120,233)" stroke="rgb(189,120,233)" stroke-width="1" opacity="0.7764705882352941" d="M 118.5 264 L 121 264.5 L 118.5 265 L 118.5 264 Z " /><path fill="rgb(189,120,233)" stroke="rgb(189,120,233)" stroke-width="1" opacity="0.7764705882352941" d="M 122.5 265 L 126 265.5 L 122.5 266 L 122.5 265 Z " /><path fill="rgb(189,120,233)" stroke="rgb(189,120,233)" stroke-width="1" opacity="0.7764705882352941" d="M 127.5 266 L 132 266.5 L 127.5 267 L 127.5 266 Z " /><path fill="rgb(189,120,233)" stroke="rgb(189,120,233)" stroke-width="1" opacity="0.7764705882352941" d="M 168.5 266 L 173 266.5 L 168.5 267 L 168.5 266 Z " /><path fill="rgb(189,120,233)" stroke="rgb(189,120,233)" stroke-width="1" opacity="0.7764705882352941" d="M 133.5 267 L 141 267.5 L 133.5 268 L 133.5 267 Z " /><path fill="rgb(189,120,233)" stroke="rgb(189,120,233)" stroke-width="1" opacity="0.7764705882352941" d="M 159.5 267 L 167 267.5 L 159.5 268 L 159.5 267 Z " /><path fill="rgb(189,120,233)" stroke="rgb(189,120,233)" stroke-width="1" opacity="0.7764705882352941" d="M 145.5 268 L 155 268.5 L 145.5 269 L 145.5 268 Z " /><path fill="rgb(234,213,248)" stroke="rgb(234,213,248)" stroke-width="1" opacity="1" d="M 104.5 55 L 200 55.5 L 104 56 L 103.5 59 L 103 56.5 L 104.5 55 Z " /><path fill="rgb(234,213,248)" stroke="rgb(234,213,248)" stroke-width="1" opacity="1" d="M 102.5 61 L 103 62.5 L 102 62.5 L 102.5 61 Z " /><path fill="rgb(234,213,248)" stroke="rgb(234,213,248)" stroke-width="1" opacity="1" d="M 101.5 66 L 102 67.5 L 101 67.5 L 101.5 66 Z " /><path fill="rgb(234,213,248)" stroke="rgb(234,213,248)" stroke-width="1" opacity="1" d="M 100.5 70 L 101 72.5 L 100 72.5 L 100.5 70 Z " /><path fill="rgb(234,213,248)" stroke="rgb(234,213,248)" stroke-width="1" opacity="1" d="M 99.5 75 L 100 78 L 200 78.5 L 99 79 L 99.5 75 Z " /><path fill="rgb(234,213,248)" stroke="rgb(234,213,248)" stroke-width="1" opacity="1" d="M 137.5 95 L 141 95.5 L 137.5 96 L 137.5 95 Z " /><path fill="rgb(234,213,248)" stroke="rgb(234,213,248)" stroke-width="1" opacity="1" d="M 158.5 95 L 162 95.5 L 158.5 96 L 158.5 95 Z " /><path fill="rgb(234,213,248)" stroke="rgb(234,213,248)" stroke-width="1" opacity="1" d="M 132.5 96 L 134 96.5 L 132.5 97 L 132.5 96 Z " /><path fill="rgb(234,213,248)" stroke="rgb(234,213,248)" stroke-width="1" opacity="1" d="M 164.5 96 L 166 96.5 L 164.5 97 L 164.5 96 Z " /><path fill="rgb(234,213,248)" stroke="rgb(234,213,248)" stroke-width="1" opacity="1" d="M 128.5 97 L 130 97.5 L 128.5 98 L 128.5 97 Z " /><path fill="rgb(234,213,248)" stroke="rgb(234,213,248)" stroke-width="1" opacity="1" d="M 168.5 97 L 170 97.5 L 168.5 98 L 168.5 97 Z " /><path fill="rgb(234,213,248)" stroke="rgb(234,213,248)" stroke-width="1" opacity="1" d="M 125.5 98 L 127 98.5 L 125.5 99 L 125.5 98 Z " /><path fill="rgb(234,213,248)" stroke="rgb(234,213,248)" stroke-width="1" opacity="1" d="M 172.5 98 L 172.5 99 L 172.5 98 Z " /><path fill="rgb(234,213,248)" stroke="rgb(234,213,248)" stroke-width="1" opacity="1" d="M 123.5 99 L 123.5 100 L 123.5 99 Z " /><path fill="rgb(234,213,248)" stroke="rgb(234,213,248)" stroke-width="1" opacity="1" d="M 174.5 99 L 176 99.5 L 174.5 100 L 174.5 99 Z " /><path fill="rgb(234,213,248)" stroke="rgb(234,213,248)" stroke-width="1" opacity="1" d="M 120.5 100 L 120.5 101 L 120.5 100 Z " /><path fill="rgb(234,213,248)" stroke="rgb(234,213,248)" stroke-width="1" opacity="1" d="M 177.5 100 L 177.5 101 L 177.5 100 Z " /><path fill="rgb(234,213,248)" stroke="rgb(234,213,248)" stroke-width="1" opacity="1" d="M 118.5 101 L 118.5 102 L 118.5 101 Z " /><path fill="rgb(234,213,248)" stroke="rgb(234,213,248)" stroke-width="1" opacity="1" d="M 179.5 101 L 179.5 102 L 179.5 101 Z " /><path fill="rgb(234,213,248)" stroke="rgb(234,213,248)" stroke-width="1" opacity="1" d="M 116.5 102 L 116.5 103 L 116.5 102 Z " /><path fill="rgb(234,213,248)" stroke="rgb(234,213,248)" stroke-width="1" opacity="1" d="M 181.5 102 L 181.5 103 L 181.5 102 Z " /><path fill="rgb(234,213,248)" stroke="rgb(234,213,248)" stroke-width="1" opacity="1" d="M 183.5 103 L 183.5 104 L 183.5 103 Z " /><path fill="rgb(234,213,248)" stroke="rgb(234,213,248)" stroke-width="1" opacity="1" d="M 113.5 104 L 113.5 105 L 113.5 104 Z " /><path fill="rgb(234,213,248)" stroke="rgb(234,213,248)" stroke-width="1" opacity="1" d="M 185.5 104 L 186.5 106 L 185.5 104 Z " /><path fill="rgb(234,213,248)" stroke="rgb(234,213,248)" stroke-width="1" opacity="1" d="M 111.5 105 L 110.5 107 L 111.5 105 Z " /><path fill="rgb(234,213,248)" stroke="rgb(234,213,248)" stroke-width="1" opacity="1" d="M 188.5 106 L 189.5 108 L 188.5 106 Z " /><path fill="rgb(234,213,248)" stroke="rgb(234,213,248)" stroke-width="1" opacity="1" d="M 107.5 108 L 105.5 111 L 107.5 108 Z " /><path fill="rgb(234,213,248)" stroke="rgb(234,213,248)" stroke-width="1" opacity="1" d="M 192.5 109 L 194.5 112 L 192.5 109 Z " /><path fill="rgb(234,213,248)" stroke="rgb(234,213,248)" stroke-width="1" opacity="1" d="M 198.5 114 L 200.5 117 L 198.5 114 Z " /><path fill="rgb(234,213,248)" stroke="rgb(234,213,248)" stroke-width="1" opacity="1" d="M 98.5 117 L 95.5 121 L 98.5 117 Z " /><path fill="rgb(234,213,248)" stroke="rgb(234,213,248)" stroke-width="1" opacity="1" d="M 144.5 119 L 150 119.5 L 144.5 120 L 144.5 119 Z " /><path fill="rgb(234,213,248)" stroke="rgb(234,213,248)" stroke-width="1" opacity="1" d="M 153.5 119 L 158 119.5 L 153.5 120 L 153.5 119 Z " /><path fill="rgb(234,213,248)" stroke="rgb(234,213,248)" stroke-width="1" opacity="1" d="M 139.5 120 L 141 120.5 L 139.5 121 L 139.5 120 Z " /><path fill="rgb(234,213,248)" stroke="rgb(234,213,248)" stroke-width="1" opacity="1" d="M 161.5 120 L 163 120.5 L 161.5 121 L 161.5 120 Z " /><path fill="rgb(234,213,248)" stroke="rgb(234,213,248)" stroke-width="1" opacity="1" d="M 203.5 120 L 205.5 123 L 203.5 120 Z " /><path fill="rgb(234,213,248)" stroke="rgb(234,213,248)" stroke-width="1" opacity="1" d="M 135.5 121 L 137 121.5 L 135.5 122 L 135.5 121 Z " /><path fill="rgb(234,213,248)" stroke="rgb(234,213,248)" stroke-width="1" opacity="1" d="M 164.5 121 L 166 121.5 L 164.5 122 L 164.5 121 Z " /><path fill="rgb(234,213,248)" stroke="rgb(234,213,248)" stroke-width="1" opacity="1" d="M 94.5 122 L 93.5 124 L 94.5 122 Z " /><path fill="rgb(234,213,248)" stroke="rgb(234,213,248)" stroke-width="1" opacity="1" d="M 133.5 122 L 133.5 123 L 133.5 122 Z " /><path fill="rgb(234,213,248)" stroke="rgb(234,213,248)" stroke-width="1" opacity="1" d="M 167.5 122 L 167.5 123 L 167.5 122 Z " /><path fill="rgb(234,213,248)" stroke="rgb(234,213,248)" stroke-width="1" opacity="1" d="M 130.5 123 L 132 123.5 L 130.5 124 L 130.5 123 Z " /><path fill="rgb(234,213,248)" stroke="rgb(234,213,248)" stroke-width="1" opacity="1" d="M 169.5 123 L 169.5 124 L 169.5 123 Z " /><path fill="rgb(234,213,248)" stroke="rgb(234,213,248)" stroke-width="1" opacity="1" d="M 171.5 124 L 171.5 125 L 171.5 124 Z " /><path fill="rgb(234,213,248)" stroke="rgb(234,213,248)" stroke-width="1" opacity="1" d="M 92.5 125 L 91.5 127 L 92.5 125 Z " /><path fill="rgb(234,213,248)" stroke="rgb(234,213,248)" stroke-width="1" opacity="1" d="M 127.5 125 L 127.5 126 L 127.5 125 Z " /><path fill="rgb(234,213,248)" stroke="rgb(234,213,248)" stroke-width="1" opacity="1" d="M 173.5 125 L 173.5 126 L 173.5 125 Z " /><path fill="rgb(234,213,248)" stroke="rgb(234,213,248)" stroke-width="1" opacity="1" d="M 207.5 125 L 208.5 127 L 207.5 125 Z " /><path fill="rgb(234,213,248)" stroke="rgb(234,213,248)" stroke-width="1" opacity="1" d="M 125.5 126 L 124.5 128 L 125.5 126 Z " /><path fill="rgb(234,213,248)" stroke="rgb(234,213,248)" stroke-width="1" opacity="1" d="M 176.5 127 L 179.5 131 L 176.5 127 Z " /><path fill="rgb(234,213,248)" stroke="rgb(234,213,248)" stroke-width="1" opacity="1" d="M 90.5 128 L 90.5 129 L 90.5 128 Z " /><path fill="rgb(234,213,248)" stroke="rgb(234,213,248)" stroke-width="1" opacity="1" d="M 209.5 128 L 210.5 130 L 209.5 128 Z " /><path fill="rgb(234,213,248)" stroke="rgb(234,213,248)" stroke-width="1" opacity="1" d="M 121.5 129 L 117.5 134 L 121.5 129 Z " /><path fill="rgb(234,213,248)" stroke="rgb(234,213,248)" stroke-width="1" opacity="1" d="M 89.5 130 L 89.5 131 L 89.5 130 Z " /><path fill="rgb(234,213,248)" stroke="rgb(234,213,248)" stroke-width="1" opacity="1" d="M 211.5 131 L 211.5 132 L 211.5 131 Z " /><path fill="rgb(234,213,248)" stroke="rgb(234,213,248)" stroke-width="1" opacity="1" d="M 88.5 132 L 88.5 133 L 88.5 132 Z " /><path fill="rgb(234,213,248)" stroke="rgb(234,213,248)" stroke-width="1" opacity="1" d="M 181.5 132 L 185.5 137 L 181.5 132 Z " /><path fill="rgb(234,213,248)" stroke="rgb(234,213,248)" stroke-width="1" opacity="1" d="M 212.5 133 L 212.5 134 L 212.5 133 Z " /><path fill="rgb(234,213,248)" stroke="rgb(234,213,248)" stroke-width="1" opacity="1" d="M 87.5 134 L 87.5 135 L 87.5 134 Z " /><path fill="rgb(234,213,248)" stroke="rgb(234,213,248)" stroke-width="1" opacity="1" d="M 213.5 135 L 213.5 136 L 213.5 135 Z " /><path fill="rgb(234,213,248)" stroke="rgb(234,213,248)" stroke-width="1" opacity="1" d="M 86.5 136 L 86.5 137 L 86.5 136 Z " /><path fill="rgb(234,213,248)" stroke="rgb(234,213,248)" stroke-width="1" opacity="1" d="M 115.5 136 L 114.5 138 L 115.5 136 Z " /><path fill="rgb(234,213,248)" stroke="rgb(234,213,248)" stroke-width="1" opacity="1" d="M 214.5 137 L 214.5 138 L 214.5 137 Z " /><path fill="rgb(234,213,248)" stroke="rgb(234,213,248)" stroke-width="1" opacity="1" d="M 85.5 138 L 85.5 139 L 85.5 138 Z " /><path fill="rgb(234,213,248)" stroke="rgb(234,213,248)" stroke-width="1" opacity="1" d="M 186.5 138 L 187.5 140 L 186.5 138 Z " /><path fill="rgb(234,213,248)" stroke="rgb(234,213,248)" stroke-width="1" opacity="1" d="M 113.5 139 L 112.5 141 L 113.5 139 Z " /><path fill="rgb(234,213,248)" stroke="rgb(234,213,248)" stroke-width="1" opacity="1" d="M 215.5 139 L 215.5 140 L 215.5 139 Z " /><path fill="rgb(234,213,248)" stroke="rgb(234,213,248)" stroke-width="1" opacity="1" d="M 84.5 141 L 84.5 142 L 84.5 141 Z " /><path fill="rgb(234,213,248)" stroke="rgb(234,213,248)" stroke-width="1" opacity="1" d="M 188.5 141 L 188.5 142 L 188.5 141 Z " /><path fill="rgb(234,213,248)" stroke="rgb(234,213,248)" stroke-width="1" opacity="1" d="M 111.5 142 L 111.5 143 L 111.5 142 Z " /><path fill="rgb(234,213,248)" stroke="rgb(234,213,248)" stroke-width="1" opacity="1" d="M 216.5 142 L 216.5 143 L 216.5 142 Z " /><path fill="rgb(234,213,248)" stroke="rgb(234,213,248)" stroke-width="1" opacity="1" d="M 189.5 143 L 189.5 144 L 189.5 143 Z " /><path fill="rgb(234,213,248)" stroke="rgb(234,213,248)" stroke-width="1" opacity="1" d="M 190.5 145 L 190.5 146 L 190.5 145 Z " /><path fill="rgb(234,213,248)" stroke="rgb(234,213,248)" stroke-width="1" opacity="1" d="M 217.5 145 L 217.5 146 L 217.5 145 Z " /><path fill="rgb(234,213,248)" stroke="rgb(234,213,248)" stroke-width="1" opacity="1" d="M 191.5 147 L 191.5 148 L 191.5 147 Z " /><path fill="rgb(234,213,248)" stroke="rgb(234,213,248)" stroke-width="1" opacity="1" d="M 218.5 148 L 219 149.5 L 218 149.5 L 218.5 148 Z " /><path fill="rgb(234,213,248)" stroke="rgb(234,213,248)" stroke-width="1" opacity="1" d="M 192.5 149 L 193 150.5 L 192 150.5 L 192.5 149 Z " /><path fill="rgb(234,213,248)" stroke="rgb(234,213,248)" stroke-width="1" opacity="1" d="M 193.5 153 L 193.5 154 L 193.5 153 Z " /><path fill="rgb(234,213,248)" stroke="rgb(234,213,248)" stroke-width="1" opacity="1" d="M 219.5 153 L 220 155.5 L 219 155.5 L 219.5 153 Z " /><path fill="rgb(234,213,248)" stroke="rgb(234,213,248)" stroke-width="1" opacity="1" d="M 194.5 157 L 195 159.5 L 194 159.5 L 194.5 157 Z " /><path fill="rgb(234,213,248)" stroke="rgb(234,213,248)" stroke-width="1" opacity="1" d="M 220.5 160 L 221 173.5 L 220 173.5 L 220.5 160 Z " /><path fill="rgb(234,213,248)" stroke="rgb(234,213,248)" stroke-width="1" opacity="1" d="M 194.5 174 L 195 176.5 L 194 176.5 L 194.5 174 Z " /><path fill="rgb(234,213,248)" stroke="rgb(234,213,248)" stroke-width="1" opacity="1" d="M 219.5 178 L 220 180.5 L 219 180.5 L 219.5 178 Z " /><path fill="rgb(234,213,248)" stroke="rgb(234,213,248)" stroke-width="1" opacity="1" d="M 193.5 180 L 193.5 181 L 193.5 180 Z " /><path fill="rgb(234,213,248)" stroke="rgb(234,213,248)" stroke-width="1" opacity="1" d="M 192.5 183 L 193 184.5 L 192 184.5 L 192.5 183 Z " /><path fill="rgb(234,213,248)" stroke="rgb(234,213,248)" stroke-width="1" opacity="1" d="M 218.5 183 L 219 185.5 L 218 185.5 L 218.5 183 Z " /><path fill="rgb(234,213,248)" stroke="rgb(234,213,248)" stroke-width="1" opacity="1" d="M 191.5 186 L 191.5 187 L 191.5 186 Z " /><path fill="rgb(234,213,248)" stroke="rgb(234,213,248)" stroke-width="1" opacity="1" d="M 217.5 187 L 218 188.5 L 217 188.5 L 217.5 187 Z " /><path fill="rgb(234,213,248)" stroke="rgb(234,213,248)" stroke-width="1" opacity="1" d="M 190.5 188 L 190.5 189 L 190.5 188 Z " /><path fill="rgb(234,213,248)" stroke="rgb(234,213,248)" stroke-width="1" opacity="1" d="M 111.5 190 L 111.5 191 L 111.5 190 Z " /><path fill="rgb(234,213,248)" stroke="rgb(234,213,248)" stroke-width="1" opacity="1" d="M 189.5 190 L 189.5 191 L 189.5 190 Z " /><path fill="rgb(234,213,248)" stroke="rgb(234,213,248)" stroke-width="1" opacity="1" d="M 84.5 191 L 84.5 192 L 84.5 191 Z " /><path fill="rgb(234,213,248)" stroke="rgb(234,213,248)" stroke-width="1" opacity="1" d="M 216.5 191 L 216.5 192 L 216.5 191 Z " /><path fill="rgb(234,213,248)" stroke="rgb(234,213,248)" stroke-width="1" opacity="1" d="M 112.5 192 L 112.5 193 L 112.5 192 Z " /><path fill="rgb(234,213,248)" stroke="rgb(234,213,248)" stroke-width="1" opacity="1" d="M 188.5 192 L 188.5 193 L 188.5 192 Z " /><path fill="rgb(234,213,248)" stroke="rgb(234,213,248)" stroke-width="1" opacity="1" d="M 85.5 193 L 86 194.5 L 85 194.5 L 85.5 193 Z " /><path fill="rgb(234,213,248)" stroke="rgb(234,213,248)" stroke-width="1" opacity="1" d="M 215.5 193 L 216 194.5 L 215 194.5 L 215.5 193 Z " /><path fill="rgb(234,213,248)" stroke="rgb(234,213,248)" stroke-width="1" opacity="1" d="M 187.5 194 L 186.5 196 L 187.5 194 Z " /><path fill="rgb(234,213,248)" stroke="rgb(234,213,248)" stroke-width="1" opacity="1" d="M 114.5 195 L 114.5 196 L 114.5 195 Z " /><path fill="rgb(234,213,248)" stroke="rgb(234,213,248)" stroke-width="1" opacity="1" d="M 86.5 196 L 86.5 197 L 86.5 196 Z " /><path fill="rgb(234,213,248)" stroke="rgb(234,213,248)" stroke-width="1" opacity="1" d="M 214.5 196 L 214.5 197 L 214.5 196 Z " /><path fill="rgb(234,213,248)" stroke="rgb(234,213,248)" stroke-width="1" opacity="1" d="M 185.5 197 L 177.5 206 L 185.5 197 Z " /><path fill="rgb(234,213,248)" stroke="rgb(234,213,248)" stroke-width="1" opacity="1" d="M 87.5 198 L 87.5 199 L 87.5 198 Z " /><path fill="rgb(234,213,248)" stroke="rgb(234,213,248)" stroke-width="1" opacity="1" d="M 116.5 198 L 124.5 207 L 116.5 198 Z " /><path fill="rgb(234,213,248)" stroke="rgb(234,213,248)" stroke-width="1" opacity="1" d="M 213.5 198 L 213.5 199 L 213.5 198 Z " /><path fill="rgb(234,213,248)" stroke="rgb(234,213,248)" stroke-width="1" opacity="1" d="M 88.5 200 L 88.5 201 L 88.5 200 Z " /><path fill="rgb(234,213,248)" stroke="rgb(234,213,248)" stroke-width="1" opacity="1" d="M 212.5 200 L 212.5 201 L 212.5 200 Z " /><path fill="rgb(234,213,248)" stroke="rgb(234,213,248)" stroke-width="1" opacity="1" d="M 89.5 202 L 89.5 203 L 89.5 202 Z " /><path fill="rgb(234,213,248)" stroke="rgb(234,213,248)" stroke-width="1" opacity="1" d="M 211.5 202 L 211.5 203 L 211.5 202 Z " /><path fill="rgb(234,213,248)" stroke="rgb(234,213,248)" stroke-width="1" opacity="1" d="M 90.5 204 L 90.5 205 L 90.5 204 Z " /><path fill="rgb(234,213,248)" stroke="rgb(234,213,248)" stroke-width="1" opacity="1" d="M 210.5 204 L 210.5 205 L 210.5 204 Z " /><path fill="rgb(234,213,248)" stroke="rgb(234,213,248)" stroke-width="1" opacity="1" d="M 91.5 206 L 91.5 207 L 91.5 206 Z " /><path fill="rgb(234,213,248)" stroke="rgb(234,213,248)" stroke-width="1" opacity="1" d="M 126.5 207 L 127.5 209 L 126.5 207 Z " /><path fill="rgb(234,213,248)" stroke="rgb(234,213,248)" stroke-width="1" opacity="1" d="M 174.5 207 L 174.5 208 L 174.5 207 Z " /><path fill="rgb(234,213,248)" stroke="rgb(234,213,248)" stroke-width="1" opacity="1" d="M 208.5 207 L 208.5 208 L 208.5 207 Z " /><path fill="rgb(234,213,248)" stroke="rgb(234,213,248)" stroke-width="1" opacity="1" d="M 93.5 209 L 93.5 210 L 93.5 209 Z " /><path fill="rgb(234,213,248)" stroke="rgb(234,213,248)" stroke-width="1" opacity="1" d="M 129.5 209 L 129.5 210 L 129.5 209 Z " /><path fill="rgb(234,213,248)" stroke="rgb(234,213,248)" stroke-width="1" opacity="1" d="M 171.5 209 L 171.5 210 L 171.5 209 Z " /><path fill="rgb(234,213,248)" stroke="rgb(234,213,248)" stroke-width="1" opacity="1" d="M 131.5 210 L 131.5 211 L 131.5 210 Z " /><path fill="rgb(234,213,248)" stroke="rgb(234,213,248)" stroke-width="1" opacity="1" d="M 169.5 210 L 169.5 211 L 169.5 210 Z " /><path fill="rgb(234,213,248)" stroke="rgb(234,213,248)" stroke-width="1" opacity="1" d="M 206.5 210 L 205.5 212 L 206.5 210 Z " /><path fill="rgb(234,213,248)" stroke="rgb(234,213,248)" stroke-width="1" opacity="1" d="M 133.5 211 L 133.5 212 L 133.5 211 Z " /><path fill="rgb(234,213,248)" stroke="rgb(234,213,248)" stroke-width="1" opacity="1" d="M 166.5 211 L 168 211.5 L 166.5 212 L 166.5 211 Z " /><path fill="rgb(234,213,248)" stroke="rgb(234,213,248)" stroke-width="1" opacity="1" d="M 95.5 212 L 96.5 214 L 95.5 212 Z " /><path fill="rgb(234,213,248)" stroke="rgb(234,213,248)" stroke-width="1" opacity="1" d="M 136.5 212 L 136.5 213 L 136.5 212 Z " /><path fill="rgb(234,213,248)" stroke="rgb(234,213,248)" stroke-width="1" opacity="1" d="M 164.5 212 L 164.5 213 L 164.5 212 Z " /><path fill="rgb(234,213,248)" stroke="rgb(234,213,248)" stroke-width="1" opacity="1" d="M 139.5 213 L 141 213.5 L 139.5 214 L 139.5 213 Z " /><path fill="rgb(234,213,248)" stroke="rgb(234,213,248)" stroke-width="1" opacity="1" d="M 160.5 213 L 162 213.5 L 160.5 214 L 160.5 213 Z " /><path fill="rgb(234,213,248)" stroke="rgb(234,213,248)" stroke-width="1" opacity="1" d="M 144.5 214 L 157 214.5 L 144.5 215 L 144.5 214 Z " /><path fill="rgb(234,213,248)" stroke="rgb(234,213,248)" stroke-width="1" opacity="1" d="M 203.5 214 L 193.5 225 L 203.5 214 Z " /><path fill="rgb(234,213,248)" stroke="rgb(234,213,248)" stroke-width="1" opacity="1" d="M 98.5 216 L 106.5 225 L 98.5 216 Z " /><path fill="rgb(234,213,248)" stroke="rgb(234,213,248)" stroke-width="1" opacity="1" d="M 191.5 225 L 190.5 227 L 191.5 225 Z " /><path fill="rgb(234,213,248)" stroke="rgb(234,213,248)" stroke-width="1" opacity="1" d="M 109.5 226 L 110.5 228 L 109.5 226 Z " /><path fill="rgb(234,213,248)" stroke="rgb(234,213,248)" stroke-width="1" opacity="1" d="M 112.5 228 L 113.5 230 L 112.5 228 Z " /><path fill="rgb(234,213,248)" stroke="rgb(234,213,248)" stroke-width="1" opacity="1" d="M 187.5 228 L 187.5 229 L 187.5 228 Z " /><path fill="rgb(234,213,248)" stroke="rgb(234,213,248)" stroke-width="1" opacity="1" d="M 115.5 230 L 115.5 231 L 115.5 230 Z " /><path fill="rgb(234,213,248)" stroke="rgb(234,213,248)" stroke-width="1" opacity="1" d="M 184.5 230 L 184.5 231 L 184.5 230 Z " /><path fill="rgb(234,213,248)" stroke="rgb(234,213,248)" stroke-width="1" opacity="1" d="M 117.5 231 L 117.5 232 L 117.5 231 Z " /><path fill="rgb(234,213,248)" stroke="rgb(234,213,248)" stroke-width="1" opacity="1" d="M 182.5 231 L 182.5 232 L 182.5 231 Z " /><path fill="rgb(234,213,248)" stroke="rgb(234,213,248)" stroke-width="1" opacity="1" d="M 119.5 232 L 119.5 233 L 119.5 232 Z " /><path fill="rgb(234,213,248)" stroke="rgb(234,213,248)" stroke-width="1" opacity="1" d="M 180.5 232 L 180.5 233 L 180.5 232 Z " /><path fill="rgb(234,213,248)" stroke="rgb(234,213,248)" stroke-width="1" opacity="1" d="M 121.5 233 L 121.5 234 L 121.5 233 Z " /><path fill="rgb(234,213,248)" stroke="rgb(234,213,248)" stroke-width="1" opacity="1" d="M 178.5 233 L 178.5 234 L 178.5 233 Z " /><path fill="rgb(234,213,248)" stroke="rgb(234,213,248)" stroke-width="1" opacity="1" d="M 123.5 234 L 125 234.5 L 123.5 235 L 123.5 234 Z " /><path fill="rgb(234,213,248)" stroke="rgb(234,213,248)" stroke-width="1" opacity="1" d="M 175.5 234 L 177 234.5 L 175.5 235 L 175.5 234 Z " /><path fill="rgb(234,213,248)" stroke="rgb(234,213,248)" stroke-width="1" opacity="1" d="M 126.5 235 L 128 235.5 L 126.5 236 L 126.5 235 Z " /><path fill="rgb(234,213,248)" stroke="rgb(234,213,248)" stroke-width="1" opacity="1" d="M 172.5 235 L 174 235.5 L 172.5 236 L 172.5 235 Z " /><path fill="rgb(234,213,248)" stroke="rgb(234,213,248)" stroke-width="1" opacity="1" d="M 129.5 236 L 131 236.5 L 129.5 237 L 129.5 236 Z " /><path fill="rgb(234,213,248)" stroke="rgb(234,213,248)" stroke-width="1" opacity="1" d="M 169.5 236 L 171 236.5 L 169.5 237 L 169.5 236 Z " /><path fill="rgb(234,213,248)" stroke="rgb(234,213,248)" stroke-width="1" opacity="1" d="M 133.5 237 L 136 237.5 L 133.5 238 L 133.5 237 Z " /><path fill="rgb(234,213,248)" stroke="rgb(234,213,248)" stroke-width="1" opacity="1" d="M 164.5 237 L 167 237.5 L 164.5 238 L 164.5 237 Z " /><path fill="rgb(234,213,248)" stroke="rgb(234,213,248)" stroke-width="1" opacity="1" d="M 139.5 238 L 144 238.5 L 139.5 239 L 139.5 238 Z " /><path fill="rgb(234,213,248)" stroke="rgb(234,213,248)" stroke-width="1" opacity="1" d="M 156.5 238 L 161 238.5 L 156.5 239 L 156.5 238 Z " /><path fill="rgb(189,120,233)" stroke="rgb(189,120,233)" stroke-width="1" opacity="1" d="M 135.5 25 Q 211.981 23.519 243 67.5 Q 273.39 97.61 271 160.5 Q 263.567 208.067 234.5 234 Q 204.838 267.838 141.5 268 Q 85.084 260.916 57 225.5 Q 27.387 196.613 28 137.5 Q 34.265 84.265 66.5 57 Q 91.778 31.778 135.5 25 Z M 105 55 L 103 57 Q 103 68 99 76 L 100 79 L 200 79 L 200 56 L 200 55 L 105 55 Z M 138 95 Q 119 98 108 108 Q 91 120 84 142 L 85 144 L 111 144 L 116 136 Q 126 120 151 119 Q 171 120 181 131 Q 192 141 195 161 Q 197 185 186 197 Q 177 210 160 214 Q 136 217 126 207 Q 116 201 112 191 L 111 189 L 84 189 Q 88 205 98 217 Q 112 234 140 239 Q 176 242 194 225 Q 216 208 221 174 Q 221 135 201 117 Q 182 93 138 95 Z " /><path fill="rgb(255,255,255)" stroke="rgb(255,255,255)" stroke-width="1" opacity="1" d="M 104 56 L 199.5 56 L 200 56.5 L 200 78 L 100.5 78 Q 99.5 78 100 73.5 L 104 56 Z " /><path fill="rgb(255,255,255)" stroke="rgb(255,255,255)" stroke-width="1" opacity="1" d="M 141.5 95 Q 185.784 93.716 203 119.5 Q 222.62 137.38 220 177.5 Q 214.118 209.118 192.5 225 Q 176.449 239.949 144.5 239 Q 112.149 235.351 97 214.5 Q 88.153 203.736 84 189 L 110.5 189 L 111 190.5 Q 116.019 200.481 124.5 207 Q 135.247 216.253 156.5 215 Q 176.255 211.255 186 197.5 Q 197.85 184.85 195 157.5 Q 190.63 137.37 176.5 127 Q 166.114 117.386 144.5 119 Q 126.229 121.729 117 133.5 L 111 144 L 84.5 144 L 84 142.5 Q 90.823 123.323 104.5 111 Q 117.889 97.889 141.5 95 Z " /></svg>